<mxfile host="app.diagrams.net" modified="2023-05-15T05:54:52.035Z" agent="Mozilla/5.0 (X11; Linux x86_64) AppleWebKit/537.36 (KHTML, like Gecko) Chrome/112.0.0.0 Safari/537.36" version="21.3.0" etag="XaKhc3sbqK66QweIqeJ5" type="github">
  <diagram name="Page-1" id="bW3rhchlF-MZrPxJpb3Z">
    <mxGraphModel>
      <root>
        <mxCell id="0" />
        <mxCell id="1" parent="0" />
      </root>
    </mxGraphModel>
  </diagram>
</mxfile>
